<svg xmlns="http://www.w3.org/2000/svg" viewBox="0 0 900 520">
  <rect width="900" height="720" fill="#f8fafc"/>
  <g font-family="Arial, sans-serif" fill="#0f172a">
    <text x="450" y="70" text-anchor="middle" font-size="34" font-weight="700">HOMBRES</text>
    <g font-size="16">
      <rect x="20" y="115" width="860" height="54" fill="#13231f"/>
      <text x="110" y="150" text-anchor="middle" fill="white">TAMAÑO</text>
      <text x="300" y="150" text-anchor="middle" fill="white">ALTURA (CM)</text>
      <text x="480" y="150" text-anchor="middle" fill="white">PESO (KG)</text>
      <text x="660" y="150" text-anchor="middle" fill="white">LARGO (CM)</text>
      <text x="815" y="150" text-anchor="middle" fill="white">PECHO (CM)</text>
      <g fill="none" stroke="#cbd5e1" stroke-width="2">
        <path d="M20 169h860M20 223h860M20 277h860M20 331h860M20 385h860M20 439h860M20 493h860"/>
        <path d="M200 115v378M390 115v378M570 115v378M750 115v378"/>
      </g>
      <g text-anchor="middle">
        <text x="110" y="205">S</text><text x="110" y="259">M</text><text x="110" y="313">L</text>
        <text x="110" y="367">XL</text><text x="110" y="421">XXL</text><text x="110" y="475">3XL</text>
        <text x="295" y="205">160–170</text><text x="295" y="259">170–175</text><text x="295" y="313">175–180</text>
        <text x="295" y="367">180–185</text><text x="295" y="421">185–190</text><text x="295" y="475">190–195</text>
        <text x="480" y="205">60–65</text><text x="480" y="259">66–70</text><text x="480" y="313">71–75</text>
        <text x="480" y="367">76–80</text><text x="480" y="421">81–87</text><text x="480" y="475">88–95</text>
        <text x="660" y="205">71</text><text x="660" y="259">73</text><text x="660" y="313">75</text>
        <text x="660" y="367">77</text><text x="660" y="421">81</text><text x="660" y="475">83</text>
        <text x="815" y="205">50</text><text x="815" y="259">52</text><text x="815" y="313">54</text>
        <text x="815" y="367">56</text><text x="815" y="421">59</text><text x="815" y="475">61</text>
      </g>
    </g>
  </g>
</svg>
